<svg t="1618393747208" class="icon" viewBox="0 0 1024 1024" version="1.1" xmlns="http://www.w3.org/2000/svg" p-id="1303"
  width="200" height="200">
  <path
    d="M981.333333 768a42.666667 42.666667 0 0 1-24.746666-8.106667l-298.666667-213.333333a42.666667 42.666667 0 0 1 0-69.12l298.666667-213.333333A42.666667 42.666667 0 0 1 1024 298.666667v426.666666a42.666667 42.666667 0 0 1-23.04 37.973334A45.653333 45.653333 0 0 1 981.333333 768z m-225.28-256L938.666667 642.56V381.44zM42.666667 768a45.653333 45.653333 0 0 1-19.626667-4.693333A42.666667 42.666667 0 0 1 0 725.333333V298.666667a42.666667 42.666667 0 0 1 67.413333-34.56l298.666667 213.333333a42.666667 42.666667 0 0 1 0 69.12l-298.666667 213.333333A42.666667 42.666667 0 0 1 42.666667 768z m42.666666-386.56v261.12L267.946667 512zM512 981.333333a42.666667 42.666667 0 0 1-42.666667-42.666666V85.333333a42.666667 42.666667 0 0 1 85.333334 0v853.333334a42.666667 42.666667 0 0 1-42.666667 42.666666z"
    p-id="1304"></path>
</svg>
