<?xml version="1.0" encoding="UTF-8"?>
<svg version="1.1" xmlns="http://www.w3.org/2000/svg" xmlns:xlink="http://www.w3.org/1999/xlink">
<defs>
<style/>
</defs>
<symbol id="i-empty" class="icon" viewBox="0 0 1351 1024" xmlns="http://www.w3.org/2000/svg"><path d="M467.198 479.648s2.688 2.688 8.096 2.688h393.44c2.688 0 5.376-2.688 8.096-2.688V358.4h409.6c-2.688-8.096-2.688-13.472-8.096-21.568L1014.238 59.264H335.166L71.07 336.832c-5.376 2.688-8.096 10.784-8.096 21.568h409.6v121.248h-5.376zm-409.6-61.952v476.96c0 37.728 40.416 70.048 88.928 70.048h1053.632c48.512 0 88.928-32.352 88.928-70.048V412.288H936.062v64.672c0 32.352-29.632 59.296-61.984 59.296h-393.44c-35.04 0-61.984-26.944-61.984-59.296v-64.672H62.942v5.376zM1200.19 1024H146.558C65.726 1024 1.054 964.704 1.054 894.656v-476.96c-2.688-48.512-2.688-94.304 29.632-123.968L313.63 0h724.896l282.944 293.728c32.352 29.632 29.632 83.552 29.632 142.816v455.424C1345.726 964.736 1278.334 1024 1200.19 1024z"/></symbol>
<symbol id="i-filter" xmlns="http://www.w3.org/2000/svg" viewBox="0 0 1000 1000"><path d="M394.8 476c9.3 9.9 14.4 23 14.4 36.4v396.2c0 23.8 29.2 36 46.4 19.2l112-126.7c15-17.8 23.3-26.5 23.3-44.1V512.5c0-13.4 5.2-26.4 14.4-36.4l321.4-344.2c24.1-25.8 5.5-67.7-30.1-67.7H103.5c-35.6 0-54.2 41.8-30.1 67.7L394.8 476z"/></symbol>
<symbol id="i-flip-x" class="icon" viewBox="0 0 1024 1024" xmlns="http://www.w3.org/2000/svg"><path d="M981.333 768a42.667 42.667 0 01-24.746-8.107L657.92 546.56a42.667 42.667 0 010-69.12l298.667-213.333a42.667 42.667 0 0167.413 34.56v426.666a42.667 42.667 0 01-23.04 37.974A45.653 45.653 0 01981.333 768zm-225.28-256l182.614 130.56V381.44zM42.667 768a45.653 45.653 0 01-19.627-4.693A42.667 42.667 0 010 725.333V298.667a42.667 42.667 0 0167.413-34.56L366.08 477.44a42.667 42.667 0 010 69.12L67.413 759.893A42.667 42.667 0 0142.667 768zm42.666-386.56v261.12L267.947 512zM512 981.333a42.667 42.667 0 01-42.667-42.666V85.333a42.667 42.667 0 0185.334 0v853.334A42.667 42.667 0 01512 981.333z"/></symbol>
<symbol id="i-flip-y" class="icon" viewBox="0 0 1024 1024" xmlns="http://www.w3.org/2000/svg"><path d="M512 384a42.667 42.667 0 01-34.56-17.92L264.107 67.413a42.667 42.667 0 01-3.414-42.666A42.667 42.667 0 01298.667 0h426.666a42.667 42.667 0 0137.974 23.04 42.667 42.667 0 01-3.414 42.667L546.56 364.373A42.667 42.667 0 01512 384zM381.44 85.333L512 267.947 642.56 85.333zM725.333 1024H298.667a42.667 42.667 0 01-34.56-67.413L477.44 657.92a42.667 42.667 0 0169.12 0l213.333 298.667a42.667 42.667 0 01-34.56 67.413zM381.44 938.667h261.12L512 756.053zm557.227-384H85.333a42.667 42.667 0 010-85.334h853.334a42.667 42.667 0 010 85.334z"/></symbol>
<symbol id="i-menu-close" viewBox="0 0 1024 1024" xmlns="http://www.w3.org/2000/svg"><path d="M408 442h480c4.4 0 8-3.6 8-8v-56c0-4.4-3.6-8-8-8H408c-4.4 0-8 3.6-8 8v56c0 4.4 3.6 8 8 8zm-8 204c0 4.4 3.6 8 8 8h480c4.4 0 8-3.6 8-8v-56c0-4.4-3.6-8-8-8H408c-4.4 0-8 3.6-8 8v56zm504-486H120c-4.4 0-8 3.6-8 8v56c0 4.4 3.6 8 8 8h784c4.4 0 8-3.6 8-8v-56c0-4.4-3.6-8-8-8zm0 632H120c-4.4 0-8 3.6-8 8v56c0 4.4 3.6 8 8 8h784c4.4 0 8-3.6 8-8v-56c0-4.4-3.6-8-8-8zM142.4 642.1L298.7 519a8.84 8.84 0 000-13.9L142.4 381.9c-5.8-4.6-14.4-.5-14.4 6.9v246.3a8.9 8.9 0 0014.4 7z"/></symbol>
<symbol id="i-menu-open" viewBox="0 0 1024 1024" xmlns="http://www.w3.org/2000/svg"><path d="M408 442h480c4.4 0 8-3.6 8-8v-56c0-4.4-3.6-8-8-8H408c-4.4 0-8 3.6-8 8v56c0 4.4 3.6 8 8 8zm-8 204c0 4.4 3.6 8 8 8h480c4.4 0 8-3.6 8-8v-56c0-4.4-3.6-8-8-8H408c-4.4 0-8 3.6-8 8v56zm504-486H120c-4.4 0-8 3.6-8 8v56c0 4.4 3.6 8 8 8h784c4.4 0 8-3.6 8-8v-56c0-4.4-3.6-8-8-8zm0 632H120c-4.4 0-8 3.6-8 8v56c0 4.4 3.6 8 8 8h784c4.4 0 8-3.6 8-8v-56c0-4.4-3.6-8-8-8zM142.4 642.1L298.7 519a8.84 8.84 0 000-13.9L142.4 381.9c-5.8-4.6-14.4-.5-14.4 6.9v246.3a8.9 8.9 0 0014.4 7z"/></symbol>
</svg>